<svg xmlns="http://www.w3.org/2000/svg" width="143.5" height="20" viewBox="0 0 143.5 20"><g fill="#d40511"><path d="M0 18.5h17.4l-1 1.4H0zm143.5 1.4h-21.3l1.1-1.4h20.3v1.4zM0 15.9h19.4l-1.1 1.4H0zm0-2.6h21.4l-1.1 1.4H0zm143.5 4h-19.3l1.1-1.4h18.3v1.4zm-16.3-4h16.3v1.4h-17.4zM18.8 19.9 28 7.6h11.4c1.3 0 1.3.5.6 1.3-.6.8-1.7 2.3-2.3 3.1-.3.5-.9 1.2 1 1.2H54C52.8 15 48.6 20 41.2 20c-6-.1-22.4-.1-22.4-.1m52.7-6.6-5 6.7H53.4l5-6.7zm19.1 0-5 6.7H72.4l5-6.7zm4.3 0s-1 1.3-1.4 1.9c-1.7 2.2-.2 4.8 5.2 4.8h21.2l5-6.7z"/><path d="m25.3 0-4.6 6.1h25c1.3 0 1.3.5.6 1.3-.6.8-1.7 2.3-2.3 3.1-.3.4-.9 1.2 1 1.2h10.2s1.7-2.2 3-4.1c1.9-2.5.2-7.7-6.5-7.7-6 .1-26.4.1-26.4.1m66.4 11.7H59.5L68.3 0h13.2l-5 6.7h5.9l5-6.7h13.2zM118.8 0 110 11.7H96L104.8 0z"/></g></svg>