<svg xmlns="http://www.w3.org/2000/svg" width="244" height="17" viewBox="0 0 244 17"><path fill="#c00" fill-rule="evenodd" d="M128.553.183v9.602c0 2.115.777 2.942 2.92 2.942h5.18c2.143 0 2.92-.827 2.92-2.942V.183h5.228V10.89c0 4.135-2.19 6.111-6.993 6.111h-7.49c-4.803 0-6.993-1.976-6.993-6.111V.183zM209.226 0c4.708 0 7.511 1.149 7.511 6.018v4.962c0 4.87-2.803 6.02-7.511 6.02h-8.383c-4.71 0-7.513-1.15-7.513-6.02V6.018c0-4.87 2.802-6.018 7.513-6.018ZM5.229.183v5.928h11.02V.183h5.227v16.632h-5.227v-6.294H5.229v6.294H0V.183zm34.14 0 9.372 16.632h-5.815l-1.623-2.94H30.706l-1.533 2.94h-5.839L32.564.183zm16.463 0v12.36h11.752v4.272H50.606V.183zm19.195 0v12.36h11.75v4.272H69.8V.183zm19.476 0v16.632h-5.228V.183zm18.864 0c4.168 0 6.193 1.104 6.193 4.365 0 2.85-1.059 3.4-2.519 3.814v.07c2.284.275 3.131 1.469 3.131 3.972 0 3.653-2.213 4.412-5.203 4.412H98.32V.184Zm50.742 0c4.027 0 5.11 1.953 5.11 4.94v1.056c0 2.228-.52 3.538-2.92 4.09v.045c1.554.276 2.849.943 2.849 3.676v2.826h-5.228v-2c0-1.745-.517-2.319-2.143-2.319h-8.218v4.319h-5.228V.184Zm27.315 0v4.135h-7.348v12.497h-5.229V4.318h-7.345V.183zm36.57 0 9.82 12.084h.046V.184h5.229v16.632h-8.103L225.168 4.73h-.047v12.085h-5.228V.184zM112.92 10.222h-9.372v2.597h9.372c1.13 0 1.884-.253 1.884-1.218 0-1.126-.753-1.379-1.884-1.379m95.175-5.949h-6.124c-2.754 0-3.271 1.263-3.271 3.331v1.793c0 2.41.517 3.33 2.989 3.33h6.688c2.474 0 2.99-.92 2.99-3.33V7.603c0-2.068-.516-3.33-3.272-3.33M35.957 4.044 32.66 10.29h6.688zm125.774.275h-8.172v4.043h8.642c1.414 0 1.93-.551 1.93-1.746v-.551c0-1.47-.752-1.746-2.4-1.746m-48.928-.139h-9.255v2.597h9.255c.964 0 1.53-.345 1.53-1.287 0-.965-.566-1.31-1.53-1.31"/></svg>